# xmcd
#
# Track frame offsets:
# 150
# 17868
# 35535
# 53564
# 68558
# 89041
# 103116
# 118192
# 137589
# 153259
# 168963
# 187939
#
# Disc length: 2704 seconds
#
#
# Revision: 0
# Processed by: cddbd v1.5.1PL2 Copyright (c) Steve Scherf et al.
# Submitted via: FreeRIP 2.944 
#
DISCID=990a8e0c
DTITLE=Rodney Crowell - Greatest Hits 
DYEAR=1993
DGENRE=Country
TTITLE0=Lovin' All Night
TTITLE1=Even Cowgirls Get The Blues
TTITLE2=What Kind Of Love
TTITLE3=I Couldn't Leave You If I Tried
TTITLE4=After All This Time
TTITLE5=Talking To A Stranger
TTITLE6=She's Crazy For Leaving
TTITLE7=Many A Long and Lonesome Highway
TTITLE8=If Looks Could Kill
TTITLE9=It's Such A Small World
TTITLE10=Things I Wished I'd Said
TTITLE11=Standing On A Rock
EXTD=
EXTT0=
EXTT1=
EXTT2=
EXTT3=
EXTT4=
EXTT5=
EXTT6=
EXTT7=
EXTT8=
EXTT9=
EXTT10=
EXTT11=
PLAYORDER=
